<svg id="Layer_1" enable-background="new 0 0 510.86 510.86" height="512" viewBox="0 0 510.86 510.86" width="512" xmlns="http://www.w3.org/2000/svg"><g><g><g><g><g><path d="m495.839 324.172c.229-.885.45-1.777.67-2.669-.217.892-.444 1.781-.67 2.669z" fill="#b1e4f9"/></g></g><g><g><path d="m255.43 14.657c-95.476 0-154.285 53.85-154.446 53.941-3.685 17.008-10.094 41.691-10.094 59.803 0 137.023 115.55 248.074 252.573 248.074 58.393 0 112.044-27.188 154.425-60.945.173-1.057 5.644-22.841 5.644-52.771 0-137.023-111.079-248.102-248.102-248.102z" fill="#f6d3d5"/></g></g><g><g><path d="m463.301 398.196c14.636-22.425 25.748-47.361 32.539-74.024.226-.888.453-1.777.67-2.669.103-.424 1.039-4.4 1.379-5.973-42.381 33.757-96.053 53.941-154.447 53.941-137.023 0-248.102-111.079-248.102-248.102 0-18.111 1.959-35.763 5.644-52.771-.006.005-.011.009-.017.014-57.059 45.456-93.638 115.525-93.638 194.147 0 49.225 14.349 95.093 39.073 133.674.004.006.008.012.011.018.699 1.091 1.911 1.745 3.207 1.745z" fill="#efa5c3"/></g></g></g><g><g><path d="m422.745 174.914c-10.933-51.582-35.72-94.907-69.415-132.924v132.924z" fill="#f1d333"/></g></g><g><g><path d="m353.955 105.071v-62.37c-13.226-14.997-27.832-29.172-43.523-42.701v215.262h117.855c-.951-14.478-2.919-28.35-5.811-41.671-37.843.001-68.521-30.677-68.521-68.52z" fill="#ffa50a"/></g></g><g><g><path d="m297.027 0h17v207.868h-17z" fill="#b1e4f9"/></g></g><g><g><path d="m297.027 216.763h17v37.99h-17z" fill="#9dc6fb"/></g></g><g><g><path d="m262.749 320.661h194.133l-19.115-66.074c-1.71-5.911-7.122-9.979-13.276-9.979h-119.283l-42.46 8.288v67.765z" fill="#fff"/></g></g><g><g><path d="m190.49 264.899-16.132 55.762h89.885v-57.114z" fill="#c8e6ff"/></g></g><g><g><path d="m162.745 286.051v62.824s326.299-2.463 326.735-3.698c6.827-19.363 11.134-39.263 12.969-59.125h-339.704z" fill="#f1f1f4"/></g></g><g><g><path d="m425.646 415.312c16.818 0 32.549-8.612 41.344-22.946.049-.08.099-.161.148-.241 9.003-14.71 16.516-30.43 22.332-46.951h-230.566c-40.484 0-77.487-22.894-95.556-59.123h-92.904c-8.061 0-13.308 8.479-9.71 15.693l56.643 113.568z" fill="#dfdde2"/></g></g><g><g><path d="m136.597 462.93h243.587c15.054 0 29.662-5.423 40.864-15.478.061-.055.123-.11.184-.166 17.825-16.033 33.316-34.612 45.899-55.165-4.276 2.562-9.433 4.355-16.647 4.355-25.336 0-25.336-22.089-50.673-22.089-25.333 0-25.333 22.089-50.666 22.089-25.334 0-25.334-22.089-50.667-22.089s-25.333 22.089-50.665 22.089-25.332-22.089-50.664-22.089c-25.334 0-25.334 22.089-50.667 22.089s-25.333-22.089-50.665-22.089c-24.908 0-25.344 21.338-49.429 22.055 10.599 16.54 23.108 31.738 37.214 45.285.079.076.158.152.238.228 14.169 13.57 33.139 20.975 52.757 20.975z" fill="#3342aa"/></g></g><g><g><path d="m83.609 441.721c44.584 42.816 105.126 69.139 171.821 69.139 63.75 0 121.869-24.054 165.806-63.571-5.256-4.22-11.327-7.73-21.423-7.73-25.333 0-25.333 22.089-50.666 22.089-25.334 0-25.334-22.089-50.667-22.089s-25.333 22.089-50.665 22.089-25.332-22.089-50.664-22.089c-25.334 0-25.334 22.089-50.667 22.089s-25.333-22.089-50.665-22.089c-4.897 0-8.841.831-12.21 2.162z" fill="#4070f6"/></g></g><g><g><path d="m190.49 264.899h114.718c5.603 0 10.146-4.542 10.146-10.146 0-5.603-4.542-10.146-10.146-10.146h-98.46c-6.153 0-11.566 4.068-13.276 9.98z" fill="#9dc6fb"/></g></g><g><g><path d="m361.99 206.763h66.296v17h-66.296z" fill="#b1e4f9"/></g></g><g><g><path d="m297.027 206.763h66.256v17h-66.256z" fill="#9dc6fb"/></g></g><g><g><path d="m282.39 0c-42.429 0-81.745 13.309-114.014 35.973v148.849h114.014z" fill="#e27d47"/></g></g><g><g><path d="m169.433 109.943v-74.702c-51.762 35.852-85.673 95.656-85.673 163.389v24.931c0 4.806 3.896 8.702 8.702 8.702h189.928v-48.502h-39.139c-40.768 0-73.818-33.049-73.818-73.818z" fill="#dd544f"/></g></g></g><g><g><g><circle cx="425.623" cy="329.959" fill="#9dc6fb" r="21.578"/></g></g><g><g><path d="m425.624 357.537c-15.207 0-27.578-12.371-27.578-27.578s12.371-27.578 27.578-27.578 27.578 12.371 27.578 27.578-12.371 27.578-27.578 27.578zm0-43.156c-8.59 0-15.578 6.988-15.578 15.578s6.988 15.578 15.578 15.578 15.578-6.988 15.578-15.578-6.989-15.578-15.578-15.578z" fill="#fff"/></g></g></g><g><g><g><circle cx="342.932" cy="329.959" fill="#9dc6fb" r="21.578"/></g></g><g><g><path d="m342.932 357.537c-15.207 0-27.578-12.371-27.578-27.578s12.371-27.578 27.578-27.578 27.578 12.371 27.578 27.578-12.371 27.578-27.578 27.578zm0-43.156c-8.59 0-15.578 6.988-15.578 15.578s6.988 15.578 15.578 15.578 15.578-6.988 15.578-15.578-6.988-15.578-15.578-15.578z" fill="#fff"/></g></g></g></g></svg>